<svg xmlns="http://www.w3.org/2000/svg" version="1.1" xmlns:xlink="http://www.w3.org/1999/xlink" xmlns:svgjs="http://svgjs.com/svgjs" width="1440" height="560" preserveAspectRatio="none" viewBox="0 0 1440 560">
    <g mask="url(&quot;#SvgjsMask1049&quot;)" fill="none">
        <path d="M1326.78 362.03 a50.66 50.66 0 1 0 101.32 0 a50.66 50.66 0 1 0 -101.32 0z" fill="rgba(248, 231, 231, 1)"></path>
        <path d="M688.03 288.05L711 288.05L711 311.02L688.03 311.02z" fill="rgba(248, 231, 231, 1)"></path>
        <path d="M644.99 425.84a51.79 51.79 0 1 0-103.58 0.89z" fill="rgba(255, 165, 165, 1)"></path>
        <path d="M835.57 444.87a11.81 11.81 0 1 0-17.22 16.17z" fill="rgba(248, 231, 231, 1)"></path>
        <path d="M681.95 523.8L710.33 523.8L710.33 544.01L681.95 544.01z" fill="rgba(255, 165, 165, 1)"></path>
        <path d="M394.8 375.51L445.49 375.51L445.49 426.2L394.8 426.2z" stroke="rgba(248, 231, 231, 1)"></path>
        <path d="M291.31 105.79a1.71 1.71 0 1 0 2.74-2.06z" stroke="rgba(233, 118, 117, 1)"></path>
        <path d="M1061.84 460.68L1067.31 460.68L1067.31 476.33L1061.84 476.33z" stroke="rgba(255, 165, 165, 1)"></path>
        <path d="M1.52 456.85 a16.08 16.08 0 1 0 32.16 0 a16.08 16.08 0 1 0 -32.16 0z" fill="rgba(248, 231, 231, 1)"></path>
        <path d="M991.63 158.25L1036.48 158.25L1036.48 203.1L991.63 203.1z" stroke="rgba(255, 165, 165, 1)"></path>
        <path d="M630.97 178.03L655.9 178.03L655.9 202.96L630.97 202.96z" fill="rgba(255, 165, 165, 1)"></path>
        <path d="M366.55 147.56a19 19 0 1 0 26.08-27.64z" fill="rgba(233, 118, 117, 1)"></path>
        <path d="M56.99 25.04 a5.53 5.53 0 1 0 11.06 0 a5.53 5.53 0 1 0 -11.06 0z" fill="rgba(255, 165, 165, 1)"></path>
        <path d="M285.81 19.6L290.94 19.6L290.94 70.44L285.81 70.44z" stroke="rgba(255, 165, 165, 1)"></path>
        <path d="M1351.3 165.56 a49.13 49.13 0 1 0 98.26 0 a49.13 49.13 0 1 0 -98.26 0z" stroke="rgba(233, 118, 117, 1)"></path>
        <path d="M373.91 459.62a53.68 53.68 0 1 0 45.83 97.08z" stroke="rgba(233, 118, 117, 1)"></path>
        <path d="M1395.98 567.9a10.39 10.39 0 1 0 4.76-20.23z" fill="rgba(255, 165, 165, 1)"></path>
        <path d="M310.95 64.18L334.56 64.18L334.56 87.79L310.95 87.79z" fill="rgba(233, 118, 117, 1)"></path>
        <path d="M939.69 472.74L988.59 472.74L988.59 521.64L939.69 521.64z" stroke="rgba(233, 118, 117, 1)"></path>
        <path d="M573.61 98.56L595.05 98.56L595.05 120L573.61 120z" stroke="rgba(248, 231, 231, 1)"></path>
        <path d="M1060.61 368.17L1069.45 368.17L1069.45 418.02L1060.61 418.02z" fill="rgba(255, 165, 165, 1)"></path>
        <path d="M990.44 502.65L1033.86 502.65L1033.86 546.07L990.44 546.07z" stroke="rgba(255, 165, 165, 1)"></path>
        <path d="M296.51 67.95L307.33 67.95L307.33 84.79L296.51 84.79z" stroke="rgba(233, 118, 117, 1)"></path>
        <path d="M316.53 369.3a38.07 38.07 0 1 0 51.45 56.13z" stroke="rgba(248, 231, 231, 1)"></path>
        <path d="M188.77 73.21a52.03 52.03 0 1 0-103.5 10.84z" fill="rgba(255, 165, 165, 1)"></path>
        <path d="M784.42 179.94 a21.66 21.66 0 1 0 43.32 0 a21.66 21.66 0 1 0 -43.32 0z" stroke="rgba(255, 165, 165, 1)"></path>
        <path d="M742.94 175.7L781.38 175.7L781.38 225.39L742.94 225.39z" fill="rgba(233, 118, 117, 1)"></path>
        <path d="M1368.2 92.34L1396.28 92.34L1396.28 134.1L1368.2 134.1z" fill="rgba(255, 165, 165, 1)"></path>
        <path d="M1062.66 149.24 a43.41 43.41 0 1 0 86.82 0 a43.41 43.41 0 1 0 -86.82 0z" fill="rgba(255, 165, 165, 1)"></path>
        <path d="M445.12 220.69L456.85 220.69L456.85 232.42L445.12 232.42z" fill="rgba(255, 165, 165, 1)"></path>
        <path d="M1415.78 143.95L1437.46 143.95L1437.46 195.96L1415.78 195.96z" stroke="rgba(248, 231, 231, 1)"></path>
        <path d="M437.91 202.84 a37.71 37.71 0 1 0 75.42 0 a37.71 37.71 0 1 0 -75.42 0z" fill="rgba(255, 165, 165, 1)"></path>
        <path d="M1180.39 238.1 a41.51 41.51 0 1 0 83.02 0 a41.51 41.51 0 1 0 -83.02 0z" fill="rgba(248, 231, 231, 1)"></path>
    </g>
    <defs>
        <mask id="SvgjsMask1049">
            <rect width="1440" height="560" fill="#ffffff"></rect>
        </mask>
    </defs>
</svg>