<svg viewBox="0 0 1065.3866666666668 799.04"><rect width="1065.3866666666668" height="799.04" fill="#ffffff" id="bg" class="bg"></rect><g><g transform="translate(0.00,
                                0.00) rotate(0, 53.269333333333336, 53.269333333333336)"><svg xmlns="http://www.w3.org/2000/svg" id="Layer_1" data-name="Layer 1" viewBox="0 0 100 100" width="106.53866666666667" height="106.53866666666667"><polygon points="22.113 90.604 100 90.604 61.056 21.651 22.113 90.604" fill="#FFAAAA"></polygon><polygon points="6 80.349 83.887 80.349 44.944 11.396 6 80.349" fill="none" stroke="#FFC2E8" stroke-linecap="round" stroke-miterlimit="10" stroke-width="6"></polygon></svg></g><g transform="translate(0.00,
                                106.54) rotate(90, 53.269333333333336, 53.269333333333336)"><svg xmlns="http://www.w3.org/2000/svg" id="Layer_1" data-name="Layer 1" viewBox="0 0 100 100" width="106.53866666666667" height="106.53866666666667"><polygon points="92 57.293 77.429 42.722 77.444 42.707 72.594 37.858 72.579 37.872 72.565 37.858 67.715 42.707 67.729 42.722 50.004 60.447 32.271 42.722 32.285 42.707 27.435 37.858 27.421 37.872 27.406 37.858 22.556 42.707 22.571 42.722 8 57.293 0 57.293 0 65.292 4.85 70.142 27.421 47.572 50.008 70.142 54.855 65.296 72.579 47.572 95.15 70.142 100 65.292 100 57.293 92 57.293" fill="#FFADD5"></polygon><polygon points="0 57.293 4.85 62.142 27.421 39.572 50.008 62.142 54.855 57.296 72.579 39.572 95.15 62.142 100 57.293 77.429 34.722 77.444 34.707 72.594 29.858 72.579 29.872 72.565 29.858 67.715 34.707 67.729 34.722 50.004 52.447 32.271 34.722 32.285 34.707 27.435 29.858 27.421 29.872 27.406 29.858 22.556 34.707 22.571 34.722 0 57.293" fill="#bac3ff"></polygon></svg></g><g transform="translate(106.54,
                                106.54) rotate(0, 53.269333333333336, 53.269333333333336)"><svg xmlns="http://www.w3.org/2000/svg" id="Layer_1" data-name="Layer 1" viewBox="0 0 100 100" width="106.53866666666667" height="106.53866666666667"><path d="M97,32.375a47,47,0,0,1-94,0c0,6.489,21.043,11.75,47,11.75S97,38.864,97,32.375Z" fill="none" stroke="#ffc665" stroke-linecap="round" stroke-linejoin="round" stroke-width="6"></path><ellipse cx="50" cy="32.375" rx="47" ry="11.75" fill="none" stroke="#ffc665" stroke-linecap="round" stroke-linejoin="round" stroke-width="6"></ellipse></svg></g><g transform="translate(213.08,
                                0.00) rotate(270, 53.269333333333336, 53.269333333333336)"><svg xmlns="http://www.w3.org/2000/svg" id="Layer_1" data-name="Layer 1" viewBox="0 0 100 100" width="106.53866666666667" height="106.53866666666667"><polygon points="22.113 90.604 100 90.604 61.056 21.651 22.113 90.604" fill="#FFAAAA"></polygon><polygon points="6 80.349 83.887 80.349 44.944 11.396 6 80.349" fill="none" stroke="#FFC2E8" stroke-linecap="round" stroke-miterlimit="10" stroke-width="6"></polygon></svg></g><g transform="translate(319.62,
                                0.00) rotate(180, 53.269333333333336, 53.269333333333336)"><svg xmlns="http://www.w3.org/2000/svg" id="Layer_1" data-name="Layer 1" viewBox="0 0 100 100" width="106.53866666666667" height="106.53866666666667"><path d="M18.667,34.333a31.333,31.333,0,0,1,62.666,0Z" fill="none" stroke="#E97A7E" stroke-linecap="round" stroke-linejoin="round" stroke-width="6"></path><path d="M18.667,65.667a31.333,31.333,0,1,1,62.666,0Z" fill="none" stroke="#E97A7E" stroke-linecap="round" stroke-linejoin="round" stroke-width="6"></path><path d="M18.667,97a31.333,31.333,0,0,1,62.666,0Z" fill="none" stroke="#E97A7E" stroke-linecap="round" stroke-linejoin="round" stroke-width="6"></path></svg></g><g transform="translate(319.62,
                                106.54) rotate(0, 53.269333333333336, 53.269333333333336)"><svg xmlns="http://www.w3.org/2000/svg" id="Layer_1" data-name="Layer 1" viewBox="0 0 100 100" width="106.53866666666667" height="106.53866666666667"><path d="M18.667,34.333a31.333,31.333,0,0,1,62.666,0Z" fill="none" stroke="#E97A7E" stroke-linecap="round" stroke-linejoin="round" stroke-width="6"></path><path d="M18.667,65.667a31.333,31.333,0,1,1,62.666,0Z" fill="none" stroke="#E97A7E" stroke-linecap="round" stroke-linejoin="round" stroke-width="6"></path><path d="M18.667,97a31.333,31.333,0,0,1,62.666,0Z" fill="none" stroke="#E97A7E" stroke-linecap="round" stroke-linejoin="round" stroke-width="6"></path></svg></g><g transform="translate(426.15,
                                0.00) rotate(270, 53.269333333333336, 53.269333333333336)"><svg xmlns="http://www.w3.org/2000/svg" id="Layer_1" data-name="Layer 1" viewBox="0 0 100 100" width="106.53866666666667" height="106.53866666666667"><polygon points="92 57.293 77.429 42.722 77.444 42.707 72.594 37.858 72.579 37.872 72.565 37.858 67.715 42.707 67.729 42.722 50.004 60.447 32.271 42.722 32.285 42.707 27.435 37.858 27.421 37.872 27.406 37.858 22.556 42.707 22.571 42.722 8 57.293 0 57.293 0 65.292 4.85 70.142 27.421 47.572 50.008 70.142 54.855 65.296 72.579 47.572 95.15 70.142 100 65.292 100 57.293 92 57.293" fill="#FFADD5"></polygon><polygon points="0 57.293 4.85 62.142 27.421 39.572 50.008 62.142 54.855 57.296 72.579 39.572 95.15 62.142 100 57.293 77.429 34.722 77.444 34.707 72.594 29.858 72.579 29.872 72.565 29.858 67.715 34.707 67.729 34.722 50.004 52.447 32.271 34.722 32.285 34.707 27.435 29.858 27.421 29.872 27.406 29.858 22.556 34.707 22.571 34.722 0 57.293" fill="#bac3ff"></polygon></svg></g><g transform="translate(426.15,
                                106.54) rotate(90, 53.269333333333336, 53.269333333333336)"><svg xmlns="http://www.w3.org/2000/svg" id="Layer_1" data-name="Layer 1" viewBox="0 0 100 100" width="106.53866666666667" height="106.53866666666667"><path d="M97,32.375a47,47,0,0,1-94,0c0,6.489,21.043,11.75,47,11.75S97,38.864,97,32.375Z" fill="none" stroke="#ffc665" stroke-linecap="round" stroke-linejoin="round" stroke-width="6"></path><ellipse cx="50" cy="32.375" rx="47" ry="11.75" fill="none" stroke="#ffc665" stroke-linecap="round" stroke-linejoin="round" stroke-width="6"></ellipse></svg></g><g transform="translate(532.69,
                                106.54) rotate(270, 53.269333333333336, 53.269333333333336)"><svg xmlns="http://www.w3.org/2000/svg" id="Layer_1" data-name="Layer 1" viewBox="0 0 100 100" width="106.53866666666667" height="106.53866666666667"><path d="M97,32.375a47,47,0,0,1-94,0c0,6.489,21.043,11.75,47,11.75S97,38.864,97,32.375Z" fill="none" stroke="#ffc665" stroke-linecap="round" stroke-linejoin="round" stroke-width="6"></path><ellipse cx="50" cy="32.375" rx="47" ry="11.75" fill="none" stroke="#ffc665" stroke-linecap="round" stroke-linejoin="round" stroke-width="6"></ellipse></svg></g><g transform="translate(639.23,
                                0.00) rotate(90, 53.269333333333336, 53.269333333333336)"><svg xmlns="http://www.w3.org/2000/svg" id="Layer_1" data-name="Layer 1" viewBox="0 0 100 100" width="106.53866666666667" height="106.53866666666667"><polygon points="22.113 90.604 100 90.604 61.056 21.651 22.113 90.604" fill="#FFAAAA"></polygon><polygon points="6 80.349 83.887 80.349 44.944 11.396 6 80.349" fill="none" stroke="#FFC2E8" stroke-linecap="round" stroke-miterlimit="10" stroke-width="6"></polygon></svg></g><g transform="translate(639.23,
                                106.54) rotate(270, 53.269333333333336, 53.269333333333336)"><svg xmlns="http://www.w3.org/2000/svg" id="Layer_1" data-name="Layer 1" viewBox="0 0 100 100" width="106.53866666666667" height="106.53866666666667"><polygon points="92 57.293 77.429 42.722 77.444 42.707 72.594 37.858 72.579 37.872 72.565 37.858 67.715 42.707 67.729 42.722 50.004 60.447 32.271 42.722 32.285 42.707 27.435 37.858 27.421 37.872 27.406 37.858 22.556 42.707 22.571 42.722 8 57.293 0 57.293 0 65.292 4.85 70.142 27.421 47.572 50.008 70.142 54.855 65.296 72.579 47.572 95.15 70.142 100 65.292 100 57.293 92 57.293" fill="#FFADD5"></polygon><polygon points="0 57.293 4.85 62.142 27.421 39.572 50.008 62.142 54.855 57.296 72.579 39.572 95.15 62.142 100 57.293 77.429 34.722 77.444 34.707 72.594 29.858 72.579 29.872 72.565 29.858 67.715 34.707 67.729 34.722 50.004 52.447 32.271 34.722 32.285 34.707 27.435 29.858 27.421 29.872 27.406 29.858 22.556 34.707 22.571 34.722 0 57.293" fill="#bac3ff"></polygon></svg></g><g transform="translate(745.77,
                                106.54) rotate(0, 53.269333333333336, 53.269333333333336)"><svg xmlns="http://www.w3.org/2000/svg" id="Layer_1" data-name="Layer 1" viewBox="0 0 100 100" width="106.53866666666667" height="106.53866666666667"><polygon points="92 57.293 77.429 42.722 77.444 42.707 72.594 37.858 72.579 37.872 72.565 37.858 67.715 42.707 67.729 42.722 50.004 60.447 32.271 42.722 32.285 42.707 27.435 37.858 27.421 37.872 27.406 37.858 22.556 42.707 22.571 42.722 8 57.293 0 57.293 0 65.292 4.85 70.142 27.421 47.572 50.008 70.142 54.855 65.296 72.579 47.572 95.15 70.142 100 65.292 100 57.293 92 57.293" fill="#FFADD5"></polygon><polygon points="0 57.293 4.85 62.142 27.421 39.572 50.008 62.142 54.855 57.296 72.579 39.572 95.15 62.142 100 57.293 77.429 34.722 77.444 34.707 72.594 29.858 72.579 29.872 72.565 29.858 67.715 34.707 67.729 34.722 50.004 52.447 32.271 34.722 32.285 34.707 27.435 29.858 27.421 29.872 27.406 29.858 22.556 34.707 22.571 34.722 0 57.293" fill="#bac3ff"></polygon></svg></g><g transform="translate(852.31,
                                0.00) rotate(90, 53.269333333333336, 53.269333333333336)"><svg xmlns="http://www.w3.org/2000/svg" id="Layer_1" data-name="Layer 1" viewBox="0 0 100 100" width="106.53866666666667" height="106.53866666666667"><polygon points="22.113 90.604 100 90.604 61.056 21.651 22.113 90.604" fill="#FFAAAA"></polygon><polygon points="6 80.349 83.887 80.349 44.944 11.396 6 80.349" fill="none" stroke="#FFC2E8" stroke-linecap="round" stroke-miterlimit="10" stroke-width="6"></polygon></svg></g><g transform="translate(852.31,
                                106.54) rotate(0, 53.269333333333336, 53.269333333333336)"><svg xmlns="http://www.w3.org/2000/svg" id="Layer_1" data-name="Layer 1" viewBox="0 0 100 100" width="106.53866666666667" height="106.53866666666667"><polygon points="92 57.293 77.429 42.722 77.444 42.707 72.594 37.858 72.579 37.872 72.565 37.858 67.715 42.707 67.729 42.722 50.004 60.447 32.271 42.722 32.285 42.707 27.435 37.858 27.421 37.872 27.406 37.858 22.556 42.707 22.571 42.722 8 57.293 0 57.293 0 65.292 4.85 70.142 27.421 47.572 50.008 70.142 54.855 65.296 72.579 47.572 95.15 70.142 100 65.292 100 57.293 92 57.293" fill="#FFADD5"></polygon><polygon points="0 57.293 4.85 62.142 27.421 39.572 50.008 62.142 54.855 57.296 72.579 39.572 95.15 62.142 100 57.293 77.429 34.722 77.444 34.707 72.594 29.858 72.579 29.872 72.565 29.858 67.715 34.707 67.729 34.722 50.004 52.447 32.271 34.722 32.285 34.707 27.435 29.858 27.421 29.872 27.406 29.858 22.556 34.707 22.571 34.722 0 57.293" fill="#bac3ff"></polygon></svg></g><g transform="translate(958.85,
                                106.54) rotate(0, 53.269333333333336, 53.269333333333336)"><svg xmlns="http://www.w3.org/2000/svg" id="Layer_1" data-name="Layer 1" viewBox="0 0 100 100" width="106.53866666666667" height="106.53866666666667"><polygon points="92 57.293 77.429 42.722 77.444 42.707 72.594 37.858 72.579 37.872 72.565 37.858 67.715 42.707 67.729 42.722 50.004 60.447 32.271 42.722 32.285 42.707 27.435 37.858 27.421 37.872 27.406 37.858 22.556 42.707 22.571 42.722 8 57.293 0 57.293 0 65.292 4.85 70.142 27.421 47.572 50.008 70.142 54.855 65.296 72.579 47.572 95.15 70.142 100 65.292 100 57.293 92 57.293" fill="#FFADD5"></polygon><polygon points="0 57.293 4.85 62.142 27.421 39.572 50.008 62.142 54.855 57.296 72.579 39.572 95.15 62.142 100 57.293 77.429 34.722 77.444 34.707 72.594 29.858 72.579 29.872 72.565 29.858 67.715 34.707 67.729 34.722 50.004 52.447 32.271 34.722 32.285 34.707 27.435 29.858 27.421 29.872 27.406 29.858 22.556 34.707 22.571 34.722 0 57.293" fill="#bac3ff"></polygon></svg></g></g><g><g transform="translate(0.00,
                                213.08) rotate(270, 53.269333333333336, 53.269333333333336)"><svg xmlns="http://www.w3.org/2000/svg" id="Layer_1" data-name="Layer 1" viewBox="0 0 100 100" width="106.53866666666667" height="106.53866666666667"><polygon points="22.113 90.604 100 90.604 61.056 21.651 22.113 90.604" fill="#FFAAAA"></polygon><polygon points="6 80.349 83.887 80.349 44.944 11.396 6 80.349" fill="none" stroke="#FFC2E8" stroke-linecap="round" stroke-miterlimit="10" stroke-width="6"></polygon></svg></g><g transform="translate(0.00,
                                319.62) rotate(270, 53.269333333333336, 53.269333333333336)"><svg xmlns="http://www.w3.org/2000/svg" id="Layer_1" data-name="Layer 1" viewBox="0 0 100 100" width="106.53866666666667" height="106.53866666666667"><polygon points="92 57.293 77.429 42.722 77.444 42.707 72.594 37.858 72.579 37.872 72.565 37.858 67.715 42.707 67.729 42.722 50.004 60.447 32.271 42.722 32.285 42.707 27.435 37.858 27.421 37.872 27.406 37.858 22.556 42.707 22.571 42.722 8 57.293 0 57.293 0 65.292 4.85 70.142 27.421 47.572 50.008 70.142 54.855 65.296 72.579 47.572 95.15 70.142 100 65.292 100 57.293 92 57.293" fill="#FFADD5"></polygon><polygon points="0 57.293 4.85 62.142 27.421 39.572 50.008 62.142 54.855 57.296 72.579 39.572 95.15 62.142 100 57.293 77.429 34.722 77.444 34.707 72.594 29.858 72.579 29.872 72.565 29.858 67.715 34.707 67.729 34.722 50.004 52.447 32.271 34.722 32.285 34.707 27.435 29.858 27.421 29.872 27.406 29.858 22.556 34.707 22.571 34.722 0 57.293" fill="#bac3ff"></polygon></svg></g><g transform="translate(106.54,
                                319.62) rotate(270, 53.269333333333336, 53.269333333333336)"><svg xmlns="http://www.w3.org/2000/svg" id="Layer_1" data-name="Layer 1" viewBox="0 0 100 100" width="106.53866666666667" height="106.53866666666667"><path d="M97,32.375a47,47,0,0,1-94,0c0,6.489,21.043,11.75,47,11.75S97,38.864,97,32.375Z" fill="none" stroke="#ffc665" stroke-linecap="round" stroke-linejoin="round" stroke-width="6"></path><ellipse cx="50" cy="32.375" rx="47" ry="11.75" fill="none" stroke="#ffc665" stroke-linecap="round" stroke-linejoin="round" stroke-width="6"></ellipse></svg></g><g transform="translate(319.62,
                                213.08) rotate(0, 53.269333333333336, 53.269333333333336)"><svg xmlns="http://www.w3.org/2000/svg" id="Layer_1" data-name="Layer 1" viewBox="0 0 100 100" width="106.53866666666667" height="106.53866666666667"><path d="M18.667,34.333a31.333,31.333,0,0,1,62.666,0Z" fill="none" stroke="#E97A7E" stroke-linecap="round" stroke-linejoin="round" stroke-width="6"></path><path d="M18.667,65.667a31.333,31.333,0,1,1,62.666,0Z" fill="none" stroke="#E97A7E" stroke-linecap="round" stroke-linejoin="round" stroke-width="6"></path><path d="M18.667,97a31.333,31.333,0,0,1,62.666,0Z" fill="none" stroke="#E97A7E" stroke-linecap="round" stroke-linejoin="round" stroke-width="6"></path></svg></g><g transform="translate(213.08,
                                319.62) rotate(180, 53.269333333333336, 53.269333333333336)"><svg xmlns="http://www.w3.org/2000/svg" id="Layer_1" data-name="Layer 1" viewBox="0 0 100 100" width="106.53866666666667" height="106.53866666666667"><polygon points="92 57.293 77.429 42.722 77.444 42.707 72.594 37.858 72.579 37.872 72.565 37.858 67.715 42.707 67.729 42.722 50.004 60.447 32.271 42.722 32.285 42.707 27.435 37.858 27.421 37.872 27.406 37.858 22.556 42.707 22.571 42.722 8 57.293 0 57.293 0 65.292 4.85 70.142 27.421 47.572 50.008 70.142 54.855 65.296 72.579 47.572 95.15 70.142 100 65.292 100 57.293 92 57.293" fill="#FFADD5"></polygon><polygon points="0 57.293 4.85 62.142 27.421 39.572 50.008 62.142 54.855 57.296 72.579 39.572 95.15 62.142 100 57.293 77.429 34.722 77.444 34.707 72.594 29.858 72.579 29.872 72.565 29.858 67.715 34.707 67.729 34.722 50.004 52.447 32.271 34.722 32.285 34.707 27.435 29.858 27.421 29.872 27.406 29.858 22.556 34.707 22.571 34.722 0 57.293" fill="#bac3ff"></polygon></svg></g><g transform="translate(319.62,
                                319.62) rotate(180, 53.269333333333336, 53.269333333333336)"><svg xmlns="http://www.w3.org/2000/svg" id="Layer_1" data-name="Layer 1" viewBox="0 0 100 100" width="106.53866666666667" height="106.53866666666667"><path d="M18.667,34.333a31.333,31.333,0,0,1,62.666,0Z" fill="none" stroke="#E97A7E" stroke-linecap="round" stroke-linejoin="round" stroke-width="6"></path><path d="M18.667,65.667a31.333,31.333,0,1,1,62.666,0Z" fill="none" stroke="#E97A7E" stroke-linecap="round" stroke-linejoin="round" stroke-width="6"></path><path d="M18.667,97a31.333,31.333,0,0,1,62.666,0Z" fill="none" stroke="#E97A7E" stroke-linecap="round" stroke-linejoin="round" stroke-width="6"></path></svg></g><g transform="translate(426.15,
                                213.08) rotate(0, 53.269333333333336, 53.269333333333336)"><svg xmlns="http://www.w3.org/2000/svg" id="Layer_1" data-name="Layer 1" viewBox="0 0 100 100" width="106.53866666666667" height="106.53866666666667"><path d="M97,32.375a47,47,0,0,1-94,0c0,6.489,21.043,11.75,47,11.75S97,38.864,97,32.375Z" fill="none" stroke="#ffc665" stroke-linecap="round" stroke-linejoin="round" stroke-width="6"></path><ellipse cx="50" cy="32.375" rx="47" ry="11.75" fill="none" stroke="#ffc665" stroke-linecap="round" stroke-linejoin="round" stroke-width="6"></ellipse></svg></g><g transform="translate(532.69,
                                319.62) rotate(180, 53.269333333333336, 53.269333333333336)"><svg xmlns="http://www.w3.org/2000/svg" id="Layer_1" data-name="Layer 1" viewBox="0 0 100 100" width="106.53866666666667" height="106.53866666666667"><polygon points="92 57.293 77.429 42.722 77.444 42.707 72.594 37.858 72.579 37.872 72.565 37.858 67.715 42.707 67.729 42.722 50.004 60.447 32.271 42.722 32.285 42.707 27.435 37.858 27.421 37.872 27.406 37.858 22.556 42.707 22.571 42.722 8 57.293 0 57.293 0 65.292 4.85 70.142 27.421 47.572 50.008 70.142 54.855 65.296 72.579 47.572 95.15 70.142 100 65.292 100 57.293 92 57.293" fill="#FFADD5"></polygon><polygon points="0 57.293 4.85 62.142 27.421 39.572 50.008 62.142 54.855 57.296 72.579 39.572 95.15 62.142 100 57.293 77.429 34.722 77.444 34.707 72.594 29.858 72.579 29.872 72.565 29.858 67.715 34.707 67.729 34.722 50.004 52.447 32.271 34.722 32.285 34.707 27.435 29.858 27.421 29.872 27.406 29.858 22.556 34.707 22.571 34.722 0 57.293" fill="#bac3ff"></polygon></svg></g><g transform="translate(639.23,
                                213.08) rotate(90, 53.269333333333336, 53.269333333333336)"><svg xmlns="http://www.w3.org/2000/svg" id="Layer_1" data-name="Layer 1" viewBox="0 0 100 100" width="106.53866666666667" height="106.53866666666667"><polygon points="92 57.293 77.429 42.722 77.444 42.707 72.594 37.858 72.579 37.872 72.565 37.858 67.715 42.707 67.729 42.722 50.004 60.447 32.271 42.722 32.285 42.707 27.435 37.858 27.421 37.872 27.406 37.858 22.556 42.707 22.571 42.722 8 57.293 0 57.293 0 65.292 4.85 70.142 27.421 47.572 50.008 70.142 54.855 65.296 72.579 47.572 95.15 70.142 100 65.292 100 57.293 92 57.293" fill="#FFADD5"></polygon><polygon points="0 57.293 4.85 62.142 27.421 39.572 50.008 62.142 54.855 57.296 72.579 39.572 95.15 62.142 100 57.293 77.429 34.722 77.444 34.707 72.594 29.858 72.579 29.872 72.565 29.858 67.715 34.707 67.729 34.722 50.004 52.447 32.271 34.722 32.285 34.707 27.435 29.858 27.421 29.872 27.406 29.858 22.556 34.707 22.571 34.722 0 57.293" fill="#bac3ff"></polygon></svg></g><g transform="translate(745.77,
                                213.08) rotate(90, 53.269333333333336, 53.269333333333336)"><svg xmlns="http://www.w3.org/2000/svg" id="Layer_1" data-name="Layer 1" viewBox="0 0 100 100" width="106.53866666666667" height="106.53866666666667"><path d="M18.667,34.333a31.333,31.333,0,0,1,62.666,0Z" fill="none" stroke="#E97A7E" stroke-linecap="round" stroke-linejoin="round" stroke-width="6"></path><path d="M18.667,65.667a31.333,31.333,0,1,1,62.666,0Z" fill="none" stroke="#E97A7E" stroke-linecap="round" stroke-linejoin="round" stroke-width="6"></path><path d="M18.667,97a31.333,31.333,0,0,1,62.666,0Z" fill="none" stroke="#E97A7E" stroke-linecap="round" stroke-linejoin="round" stroke-width="6"></path></svg></g><g transform="translate(639.23,
                                319.62) rotate(270, 53.269333333333336, 53.269333333333336)"><svg xmlns="http://www.w3.org/2000/svg" id="Layer_1" data-name="Layer 1" viewBox="0 0 100 100" width="106.53866666666667" height="106.53866666666667"><path d="M97,32.375a47,47,0,0,1-94,0c0,6.489,21.043,11.75,47,11.75S97,38.864,97,32.375Z" fill="none" stroke="#ffc665" stroke-linecap="round" stroke-linejoin="round" stroke-width="6"></path><ellipse cx="50" cy="32.375" rx="47" ry="11.75" fill="none" stroke="#ffc665" stroke-linecap="round" stroke-linejoin="round" stroke-width="6"></ellipse></svg></g><g transform="translate(745.77,
                                319.62) rotate(90, 53.269333333333336, 53.269333333333336)"><svg xmlns="http://www.w3.org/2000/svg" id="Layer_1" data-name="Layer 1" viewBox="0 0 100 100" width="106.53866666666667" height="106.53866666666667"><path d="M97,32.375a47,47,0,0,1-94,0c0,6.489,21.043,11.75,47,11.75S97,38.864,97,32.375Z" fill="none" stroke="#ffc665" stroke-linecap="round" stroke-linejoin="round" stroke-width="6"></path><ellipse cx="50" cy="32.375" rx="47" ry="11.75" fill="none" stroke="#ffc665" stroke-linecap="round" stroke-linejoin="round" stroke-width="6"></ellipse></svg></g><g transform="translate(852.31,
                                213.08) rotate(90, 53.269333333333336, 53.269333333333336)"><svg xmlns="http://www.w3.org/2000/svg" id="Layer_1" data-name="Layer 1" viewBox="0 0 100 100" width="106.53866666666667" height="106.53866666666667"><polygon points="92 57.293 77.429 42.722 77.444 42.707 72.594 37.858 72.579 37.872 72.565 37.858 67.715 42.707 67.729 42.722 50.004 60.447 32.271 42.722 32.285 42.707 27.435 37.858 27.421 37.872 27.406 37.858 22.556 42.707 22.571 42.722 8 57.293 0 57.293 0 65.292 4.85 70.142 27.421 47.572 50.008 70.142 54.855 65.296 72.579 47.572 95.15 70.142 100 65.292 100 57.293 92 57.293" fill="#FFADD5"></polygon><polygon points="0 57.293 4.85 62.142 27.421 39.572 50.008 62.142 54.855 57.296 72.579 39.572 95.15 62.142 100 57.293 77.429 34.722 77.444 34.707 72.594 29.858 72.579 29.872 72.565 29.858 67.715 34.707 67.729 34.722 50.004 52.447 32.271 34.722 32.285 34.707 27.435 29.858 27.421 29.872 27.406 29.858 22.556 34.707 22.571 34.722 0 57.293" fill="#bac3ff"></polygon></svg></g><g transform="translate(852.31,
                                319.62) rotate(0, 53.269333333333336, 53.269333333333336)"><svg xmlns="http://www.w3.org/2000/svg" id="Layer_1" data-name="Layer 1" viewBox="0 0 100 100" width="106.53866666666667" height="106.53866666666667"><path d="M97,32.375a47,47,0,0,1-94,0c0,6.489,21.043,11.75,47,11.75S97,38.864,97,32.375Z" fill="none" stroke="#ffc665" stroke-linecap="round" stroke-linejoin="round" stroke-width="6"></path><ellipse cx="50" cy="32.375" rx="47" ry="11.75" fill="none" stroke="#ffc665" stroke-linecap="round" stroke-linejoin="round" stroke-width="6"></ellipse></svg></g></g><g><g transform="translate(0.00,
                                426.15) rotate(180, 53.269333333333336, 53.269333333333336)"><svg xmlns="http://www.w3.org/2000/svg" id="Layer_1" data-name="Layer 1" viewBox="0 0 100 100" width="106.53866666666667" height="106.53866666666667"><polygon points="22.113 90.604 100 90.604 61.056 21.651 22.113 90.604" fill="#FFAAAA"></polygon><polygon points="6 80.349 83.887 80.349 44.944 11.396 6 80.349" fill="none" stroke="#FFC2E8" stroke-linecap="round" stroke-miterlimit="10" stroke-width="6"></polygon></svg></g><g transform="translate(106.54,
                                426.15) rotate(0, 53.269333333333336, 53.269333333333336)"><svg xmlns="http://www.w3.org/2000/svg" id="Layer_1" data-name="Layer 1" viewBox="0 0 100 100" width="106.53866666666667" height="106.53866666666667"><polygon points="22.113 90.604 100 90.604 61.056 21.651 22.113 90.604" fill="#FFAAAA"></polygon><polygon points="6 80.349 83.887 80.349 44.944 11.396 6 80.349" fill="none" stroke="#FFC2E8" stroke-linecap="round" stroke-miterlimit="10" stroke-width="6"></polygon></svg></g><g transform="translate(106.54,
                                532.69) rotate(180, 53.269333333333336, 53.269333333333336)"><svg xmlns="http://www.w3.org/2000/svg" id="Layer_1" data-name="Layer 1" viewBox="0 0 100 100" width="106.53866666666667" height="106.53866666666667"><path d="M97,32.375a47,47,0,0,1-94,0c0,6.489,21.043,11.75,47,11.75S97,38.864,97,32.375Z" fill="none" stroke="#ffc665" stroke-linecap="round" stroke-linejoin="round" stroke-width="6"></path><ellipse cx="50" cy="32.375" rx="47" ry="11.75" fill="none" stroke="#ffc665" stroke-linecap="round" stroke-linejoin="round" stroke-width="6"></ellipse></svg></g><g transform="translate(213.08,
                                426.15) rotate(0, 53.269333333333336, 53.269333333333336)"><svg xmlns="http://www.w3.org/2000/svg" id="Layer_1" data-name="Layer 1" viewBox="0 0 100 100" width="106.53866666666667" height="106.53866666666667"><polygon points="92 57.293 77.429 42.722 77.444 42.707 72.594 37.858 72.579 37.872 72.565 37.858 67.715 42.707 67.729 42.722 50.004 60.447 32.271 42.722 32.285 42.707 27.435 37.858 27.421 37.872 27.406 37.858 22.556 42.707 22.571 42.722 8 57.293 0 57.293 0 65.292 4.85 70.142 27.421 47.572 50.008 70.142 54.855 65.296 72.579 47.572 95.15 70.142 100 65.292 100 57.293 92 57.293" fill="#FFADD5"></polygon><polygon points="0 57.293 4.85 62.142 27.421 39.572 50.008 62.142 54.855 57.296 72.579 39.572 95.15 62.142 100 57.293 77.429 34.722 77.444 34.707 72.594 29.858 72.579 29.872 72.565 29.858 67.715 34.707 67.729 34.722 50.004 52.447 32.271 34.722 32.285 34.707 27.435 29.858 27.421 29.872 27.406 29.858 22.556 34.707 22.571 34.722 0 57.293" fill="#bac3ff"></polygon></svg></g><g transform="translate(426.15,
                                426.15) rotate(270, 53.269333333333336, 53.269333333333336)"><svg xmlns="http://www.w3.org/2000/svg" id="Layer_1" data-name="Layer 1" viewBox="0 0 100 100" width="106.53866666666667" height="106.53866666666667"><path d="M97,32.375a47,47,0,0,1-94,0c0,6.489,21.043,11.75,47,11.75S97,38.864,97,32.375Z" fill="none" stroke="#ffc665" stroke-linecap="round" stroke-linejoin="round" stroke-width="6"></path><ellipse cx="50" cy="32.375" rx="47" ry="11.75" fill="none" stroke="#ffc665" stroke-linecap="round" stroke-linejoin="round" stroke-width="6"></ellipse></svg></g><g transform="translate(532.69,
                                532.69) rotate(180, 53.269333333333336, 53.269333333333336)"><svg xmlns="http://www.w3.org/2000/svg" id="Layer_1" data-name="Layer 1" viewBox="0 0 100 100" width="106.53866666666667" height="106.53866666666667"><polygon points="92 57.293 77.429 42.722 77.444 42.707 72.594 37.858 72.579 37.872 72.565 37.858 67.715 42.707 67.729 42.722 50.004 60.447 32.271 42.722 32.285 42.707 27.435 37.858 27.421 37.872 27.406 37.858 22.556 42.707 22.571 42.722 8 57.293 0 57.293 0 65.292 4.85 70.142 27.421 47.572 50.008 70.142 54.855 65.296 72.579 47.572 95.15 70.142 100 65.292 100 57.293 92 57.293" fill="#FFADD5"></polygon><polygon points="0 57.293 4.85 62.142 27.421 39.572 50.008 62.142 54.855 57.296 72.579 39.572 95.15 62.142 100 57.293 77.429 34.722 77.444 34.707 72.594 29.858 72.579 29.872 72.565 29.858 67.715 34.707 67.729 34.722 50.004 52.447 32.271 34.722 32.285 34.707 27.435 29.858 27.421 29.872 27.406 29.858 22.556 34.707 22.571 34.722 0 57.293" fill="#bac3ff"></polygon></svg></g><g transform="translate(639.23,
                                426.15) rotate(0, 53.269333333333336, 53.269333333333336)"><svg xmlns="http://www.w3.org/2000/svg" id="Layer_1" data-name="Layer 1" viewBox="0 0 100 100" width="106.53866666666667" height="106.53866666666667"><polygon points="22.113 90.604 100 90.604 61.056 21.651 22.113 90.604" fill="#FFAAAA"></polygon><polygon points="6 80.349 83.887 80.349 44.944 11.396 6 80.349" fill="none" stroke="#FFC2E8" stroke-linecap="round" stroke-miterlimit="10" stroke-width="6"></polygon></svg></g><g transform="translate(745.77,
                                532.69) rotate(0, 53.269333333333336, 53.269333333333336)"><svg xmlns="http://www.w3.org/2000/svg" id="Layer_1" data-name="Layer 1" viewBox="0 0 100 100" width="106.53866666666667" height="106.53866666666667"><path d="M97,32.375a47,47,0,0,1-94,0c0,6.489,21.043,11.75,47,11.75S97,38.864,97,32.375Z" fill="none" stroke="#ffc665" stroke-linecap="round" stroke-linejoin="round" stroke-width="6"></path><ellipse cx="50" cy="32.375" rx="47" ry="11.75" fill="none" stroke="#ffc665" stroke-linecap="round" stroke-linejoin="round" stroke-width="6"></ellipse></svg></g><g transform="translate(852.31,
                                426.15) rotate(0, 53.269333333333336, 53.269333333333336)"><svg xmlns="http://www.w3.org/2000/svg" id="Layer_1" data-name="Layer 1" viewBox="0 0 100 100" width="106.53866666666667" height="106.53866666666667"><polygon points="22.113 90.604 100 90.604 61.056 21.651 22.113 90.604" fill="#FFAAAA"></polygon><polygon points="6 80.349 83.887 80.349 44.944 11.396 6 80.349" fill="none" stroke="#FFC2E8" stroke-linecap="round" stroke-miterlimit="10" stroke-width="6"></polygon></svg></g><g transform="translate(852.31,
                                532.69) rotate(0, 53.269333333333336, 53.269333333333336)"><svg xmlns="http://www.w3.org/2000/svg" id="Layer_1" data-name="Layer 1" viewBox="0 0 100 100" width="106.53866666666667" height="106.53866666666667"><polygon points="92 57.293 77.429 42.722 77.444 42.707 72.594 37.858 72.579 37.872 72.565 37.858 67.715 42.707 67.729 42.722 50.004 60.447 32.271 42.722 32.285 42.707 27.435 37.858 27.421 37.872 27.406 37.858 22.556 42.707 22.571 42.722 8 57.293 0 57.293 0 65.292 4.85 70.142 27.421 47.572 50.008 70.142 54.855 65.296 72.579 47.572 95.15 70.142 100 65.292 100 57.293 92 57.293" fill="#FFADD5"></polygon><polygon points="0 57.293 4.85 62.142 27.421 39.572 50.008 62.142 54.855 57.296 72.579 39.572 95.15 62.142 100 57.293 77.429 34.722 77.444 34.707 72.594 29.858 72.579 29.872 72.565 29.858 67.715 34.707 67.729 34.722 50.004 52.447 32.271 34.722 32.285 34.707 27.435 29.858 27.421 29.872 27.406 29.858 22.556 34.707 22.571 34.722 0 57.293" fill="#bac3ff"></polygon></svg></g><g transform="translate(958.85,
                                532.69) rotate(270, 53.269333333333336, 53.269333333333336)"><svg xmlns="http://www.w3.org/2000/svg" id="Layer_1" data-name="Layer 1" viewBox="0 0 100 100" width="106.53866666666667" height="106.53866666666667"><polygon points="92 57.293 77.429 42.722 77.444 42.707 72.594 37.858 72.579 37.872 72.565 37.858 67.715 42.707 67.729 42.722 50.004 60.447 32.271 42.722 32.285 42.707 27.435 37.858 27.421 37.872 27.406 37.858 22.556 42.707 22.571 42.722 8 57.293 0 57.293 0 65.292 4.85 70.142 27.421 47.572 50.008 70.142 54.855 65.296 72.579 47.572 95.15 70.142 100 65.292 100 57.293 92 57.293" fill="#FFADD5"></polygon><polygon points="0 57.293 4.85 62.142 27.421 39.572 50.008 62.142 54.855 57.296 72.579 39.572 95.15 62.142 100 57.293 77.429 34.722 77.444 34.707 72.594 29.858 72.579 29.872 72.565 29.858 67.715 34.707 67.729 34.722 50.004 52.447 32.271 34.722 32.285 34.707 27.435 29.858 27.421 29.872 27.406 29.858 22.556 34.707 22.571 34.722 0 57.293" fill="#bac3ff"></polygon></svg></g></g><g><g transform="translate(0.00,
                                639.23) rotate(90, 53.269333333333336, 53.269333333333336)"><svg xmlns="http://www.w3.org/2000/svg" id="Layer_1" data-name="Layer 1" viewBox="0 0 100 100" width="106.53866666666667" height="106.53866666666667"><polygon points="22.113 90.604 100 90.604 61.056 21.651 22.113 90.604" fill="#FFAAAA"></polygon><polygon points="6 80.349 83.887 80.349 44.944 11.396 6 80.349" fill="none" stroke="#FFC2E8" stroke-linecap="round" stroke-miterlimit="10" stroke-width="6"></polygon></svg></g><g transform="translate(106.54,
                                639.23) rotate(270, 53.269333333333336, 53.269333333333336)"><svg xmlns="http://www.w3.org/2000/svg" id="Layer_1" data-name="Layer 1" viewBox="0 0 100 100" width="106.53866666666667" height="106.53866666666667"><polygon points="22.113 90.604 100 90.604 61.056 21.651 22.113 90.604" fill="#FFAAAA"></polygon><polygon points="6 80.349 83.887 80.349 44.944 11.396 6 80.349" fill="none" stroke="#FFC2E8" stroke-linecap="round" stroke-miterlimit="10" stroke-width="6"></polygon></svg></g><g transform="translate(0.00,
                                745.77) rotate(0, 53.269333333333336, 53.269333333333336)"><svg xmlns="http://www.w3.org/2000/svg" id="Layer_1" data-name="Layer 1" viewBox="0 0 100 100" width="106.53866666666667" height="106.53866666666667"><polygon points="92 57.293 77.429 42.722 77.444 42.707 72.594 37.858 72.579 37.872 72.565 37.858 67.715 42.707 67.729 42.722 50.004 60.447 32.271 42.722 32.285 42.707 27.435 37.858 27.421 37.872 27.406 37.858 22.556 42.707 22.571 42.722 8 57.293 0 57.293 0 65.292 4.85 70.142 27.421 47.572 50.008 70.142 54.855 65.296 72.579 47.572 95.15 70.142 100 65.292 100 57.293 92 57.293" fill="#FFADD5"></polygon><polygon points="0 57.293 4.85 62.142 27.421 39.572 50.008 62.142 54.855 57.296 72.579 39.572 95.15 62.142 100 57.293 77.429 34.722 77.444 34.707 72.594 29.858 72.579 29.872 72.565 29.858 67.715 34.707 67.729 34.722 50.004 52.447 32.271 34.722 32.285 34.707 27.435 29.858 27.421 29.872 27.406 29.858 22.556 34.707 22.571 34.722 0 57.293" fill="#bac3ff"></polygon></svg></g><g transform="translate(106.54,
                                745.77) rotate(270, 53.269333333333336, 53.269333333333336)"><svg xmlns="http://www.w3.org/2000/svg" id="Layer_1" data-name="Layer 1" viewBox="0 0 100 100" width="106.53866666666667" height="106.53866666666667"><path d="M18.667,34.333a31.333,31.333,0,0,1,62.666,0Z" fill="none" stroke="#E97A7E" stroke-linecap="round" stroke-linejoin="round" stroke-width="6"></path><path d="M18.667,65.667a31.333,31.333,0,1,1,62.666,0Z" fill="none" stroke="#E97A7E" stroke-linecap="round" stroke-linejoin="round" stroke-width="6"></path><path d="M18.667,97a31.333,31.333,0,0,1,62.666,0Z" fill="none" stroke="#E97A7E" stroke-linecap="round" stroke-linejoin="round" stroke-width="6"></path></svg></g><g transform="translate(213.08,
                                639.23) rotate(0, 53.269333333333336, 53.269333333333336)"><svg xmlns="http://www.w3.org/2000/svg" id="Layer_1" data-name="Layer 1" viewBox="0 0 100 100" width="106.53866666666667" height="106.53866666666667"><polygon points="92 57.293 77.429 42.722 77.444 42.707 72.594 37.858 72.579 37.872 72.565 37.858 67.715 42.707 67.729 42.722 50.004 60.447 32.271 42.722 32.285 42.707 27.435 37.858 27.421 37.872 27.406 37.858 22.556 42.707 22.571 42.722 8 57.293 0 57.293 0 65.292 4.85 70.142 27.421 47.572 50.008 70.142 54.855 65.296 72.579 47.572 95.15 70.142 100 65.292 100 57.293 92 57.293" fill="#FFADD5"></polygon><polygon points="0 57.293 4.85 62.142 27.421 39.572 50.008 62.142 54.855 57.296 72.579 39.572 95.15 62.142 100 57.293 77.429 34.722 77.444 34.707 72.594 29.858 72.579 29.872 72.565 29.858 67.715 34.707 67.729 34.722 50.004 52.447 32.271 34.722 32.285 34.707 27.435 29.858 27.421 29.872 27.406 29.858 22.556 34.707 22.571 34.722 0 57.293" fill="#bac3ff"></polygon></svg></g><g transform="translate(319.62,
                                745.77) rotate(270, 53.269333333333336, 53.269333333333336)"><svg xmlns="http://www.w3.org/2000/svg" id="Layer_1" data-name="Layer 1" viewBox="0 0 100 100" width="106.53866666666667" height="106.53866666666667"><path d="M97,32.375a47,47,0,0,1-94,0c0,6.489,21.043,11.75,47,11.75S97,38.864,97,32.375Z" fill="none" stroke="#ffc665" stroke-linecap="round" stroke-linejoin="round" stroke-width="6"></path><ellipse cx="50" cy="32.375" rx="47" ry="11.75" fill="none" stroke="#ffc665" stroke-linecap="round" stroke-linejoin="round" stroke-width="6"></ellipse></svg></g><g transform="translate(426.15,
                                639.23) rotate(0, 53.269333333333336, 53.269333333333336)"><svg xmlns="http://www.w3.org/2000/svg" id="Layer_1" data-name="Layer 1" viewBox="0 0 100 100" width="106.53866666666667" height="106.53866666666667"><polygon points="92 57.293 77.429 42.722 77.444 42.707 72.594 37.858 72.579 37.872 72.565 37.858 67.715 42.707 67.729 42.722 50.004 60.447 32.271 42.722 32.285 42.707 27.435 37.858 27.421 37.872 27.406 37.858 22.556 42.707 22.571 42.722 8 57.293 0 57.293 0 65.292 4.85 70.142 27.421 47.572 50.008 70.142 54.855 65.296 72.579 47.572 95.15 70.142 100 65.292 100 57.293 92 57.293" fill="#FFADD5"></polygon><polygon points="0 57.293 4.85 62.142 27.421 39.572 50.008 62.142 54.855 57.296 72.579 39.572 95.15 62.142 100 57.293 77.429 34.722 77.444 34.707 72.594 29.858 72.579 29.872 72.565 29.858 67.715 34.707 67.729 34.722 50.004 52.447 32.271 34.722 32.285 34.707 27.435 29.858 27.421 29.872 27.406 29.858 22.556 34.707 22.571 34.722 0 57.293" fill="#bac3ff"></polygon></svg></g><g transform="translate(532.69,
                                639.23) rotate(0, 53.269333333333336, 53.269333333333336)"><svg xmlns="http://www.w3.org/2000/svg" id="Layer_1" data-name="Layer 1" viewBox="0 0 100 100" width="106.53866666666667" height="106.53866666666667"><path d="M18.667,34.333a31.333,31.333,0,0,1,62.666,0Z" fill="none" stroke="#E97A7E" stroke-linecap="round" stroke-linejoin="round" stroke-width="6"></path><path d="M18.667,65.667a31.333,31.333,0,1,1,62.666,0Z" fill="none" stroke="#E97A7E" stroke-linecap="round" stroke-linejoin="round" stroke-width="6"></path><path d="M18.667,97a31.333,31.333,0,0,1,62.666,0Z" fill="none" stroke="#E97A7E" stroke-linecap="round" stroke-linejoin="round" stroke-width="6"></path></svg></g><g transform="translate(532.69,
                                745.77) rotate(180, 53.269333333333336, 53.269333333333336)"><svg xmlns="http://www.w3.org/2000/svg" id="Layer_1" data-name="Layer 1" viewBox="0 0 100 100" width="106.53866666666667" height="106.53866666666667"><polygon points="92 57.293 77.429 42.722 77.444 42.707 72.594 37.858 72.579 37.872 72.565 37.858 67.715 42.707 67.729 42.722 50.004 60.447 32.271 42.722 32.285 42.707 27.435 37.858 27.421 37.872 27.406 37.858 22.556 42.707 22.571 42.722 8 57.293 0 57.293 0 65.292 4.85 70.142 27.421 47.572 50.008 70.142 54.855 65.296 72.579 47.572 95.15 70.142 100 65.292 100 57.293 92 57.293" fill="#FFADD5"></polygon><polygon points="0 57.293 4.85 62.142 27.421 39.572 50.008 62.142 54.855 57.296 72.579 39.572 95.15 62.142 100 57.293 77.429 34.722 77.444 34.707 72.594 29.858 72.579 29.872 72.565 29.858 67.715 34.707 67.729 34.722 50.004 52.447 32.271 34.722 32.285 34.707 27.435 29.858 27.421 29.872 27.406 29.858 22.556 34.707 22.571 34.722 0 57.293" fill="#bac3ff"></polygon></svg></g><g transform="translate(639.23,
                                639.23) rotate(90, 53.269333333333336, 53.269333333333336)"><svg xmlns="http://www.w3.org/2000/svg" id="Layer_1" data-name="Layer 1" viewBox="0 0 100 100" width="106.53866666666667" height="106.53866666666667"><path d="M97,32.375a47,47,0,0,1-94,0c0,6.489,21.043,11.75,47,11.75S97,38.864,97,32.375Z" fill="none" stroke="#ffc665" stroke-linecap="round" stroke-linejoin="round" stroke-width="6"></path><ellipse cx="50" cy="32.375" rx="47" ry="11.75" fill="none" stroke="#ffc665" stroke-linecap="round" stroke-linejoin="round" stroke-width="6"></ellipse></svg></g><g transform="translate(745.77,
                                745.77) rotate(270, 53.269333333333336, 53.269333333333336)"><svg xmlns="http://www.w3.org/2000/svg" id="Layer_1" data-name="Layer 1" viewBox="0 0 100 100" width="106.53866666666667" height="106.53866666666667"><path d="M97,32.375a47,47,0,0,1-94,0c0,6.489,21.043,11.75,47,11.75S97,38.864,97,32.375Z" fill="none" stroke="#ffc665" stroke-linecap="round" stroke-linejoin="round" stroke-width="6"></path><ellipse cx="50" cy="32.375" rx="47" ry="11.75" fill="none" stroke="#ffc665" stroke-linecap="round" stroke-linejoin="round" stroke-width="6"></ellipse></svg></g><g transform="translate(852.31,
                                639.23) rotate(270, 53.269333333333336, 53.269333333333336)"><svg xmlns="http://www.w3.org/2000/svg" id="Layer_1" data-name="Layer 1" viewBox="0 0 100 100" width="106.53866666666667" height="106.53866666666667"><polygon points="22.113 90.604 100 90.604 61.056 21.651 22.113 90.604" fill="#FFAAAA"></polygon><polygon points="6 80.349 83.887 80.349 44.944 11.396 6 80.349" fill="none" stroke="#FFC2E8" stroke-linecap="round" stroke-miterlimit="10" stroke-width="6"></polygon></svg></g><g transform="translate(852.31,
                                745.77) rotate(90, 53.269333333333336, 53.269333333333336)"><svg xmlns="http://www.w3.org/2000/svg" id="Layer_1" data-name="Layer 1" viewBox="0 0 100 100" width="106.53866666666667" height="106.53866666666667"><polygon points="92 57.293 77.429 42.722 77.444 42.707 72.594 37.858 72.579 37.872 72.565 37.858 67.715 42.707 67.729 42.722 50.004 60.447 32.271 42.722 32.285 42.707 27.435 37.858 27.421 37.872 27.406 37.858 22.556 42.707 22.571 42.722 8 57.293 0 57.293 0 65.292 4.85 70.142 27.421 47.572 50.008 70.142 54.855 65.296 72.579 47.572 95.15 70.142 100 65.292 100 57.293 92 57.293" fill="#FFADD5"></polygon><polygon points="0 57.293 4.85 62.142 27.421 39.572 50.008 62.142 54.855 57.296 72.579 39.572 95.15 62.142 100 57.293 77.429 34.722 77.444 34.707 72.594 29.858 72.579 29.872 72.565 29.858 67.715 34.707 67.729 34.722 50.004 52.447 32.271 34.722 32.285 34.707 27.435 29.858 27.421 29.872 27.406 29.858 22.556 34.707 22.571 34.722 0 57.293" fill="#bac3ff"></polygon></svg></g><g transform="translate(958.85,
                                745.77) rotate(0, 53.269333333333336, 53.269333333333336)"><svg xmlns="http://www.w3.org/2000/svg" id="Layer_1" data-name="Layer 1" viewBox="0 0 100 100" width="106.53866666666667" height="106.53866666666667"><path d="M18.667,34.333a31.333,31.333,0,0,1,62.666,0Z" fill="none" stroke="#E97A7E" stroke-linecap="round" stroke-linejoin="round" stroke-width="6"></path><path d="M18.667,65.667a31.333,31.333,0,1,1,62.666,0Z" fill="none" stroke="#E97A7E" stroke-linecap="round" stroke-linejoin="round" stroke-width="6"></path><path d="M18.667,97a31.333,31.333,0,0,1,62.666,0Z" fill="none" stroke="#E97A7E" stroke-linecap="round" stroke-linejoin="round" stroke-width="6"></path></svg></g></g></svg>