<svg xmlns="http://www.w3.org/2000/svg" version="1.1" xmlns:xlink="http://www.w3.org/1999/xlink" xmlns:svgjs="http://svgjs.com/svgjs" width="1440" height="560" preserveAspectRatio="none" viewBox="0 0 1440 560">
    <g mask="url(&quot;#SvgjsMask1028&quot;)" fill="none">
        <rect width="1440" height="560" x="0" y="0" fill="rgba(248, 231, 231, 1)"></rect>
        <path d="M0,374.533C72.733,371.911,147.711,364.392,207.643,323.099C266.699,282.41,296.655,214.317,326.91,149.295C357.365,83.844,388.066,16.894,383.652,-55.161C379.034,-130.539,360.567,-214.102,301.745,-261.463C244.028,-307.934,159.676,-283.051,86.458,-294.449C24.727,-304.058,-33.095,-332.309,-94.902,-323.207C-162.453,-313.259,-239.711,-297.401,-277.889,-240.792C-315.92,-184.401,-275.022,-108.256,-285.219,-41.008C-295.534,27.017,-349.886,86.534,-337.796,154.266C-324.645,227.941,-280.18,297.544,-217.491,338.422C-154.66,379.392,-74.96,377.235,0,374.533" fill="#d97c7c"></path>
        <path d="M1440 891.6279999999999C1504.065 899.216 1565.279 872.892 1624.201 846.623 1692.065 816.367 1787.472 799.375 1807.449 727.808 1828.208 653.436 1726.592 596.803 1715.253 520.425 1704.003 444.64300000000003 1777.56 365.64300000000003 1743.495 297.02 1709.75 229.043 1625.49 187.495 1549.602 186.73000000000002 1476.118 185.98899999999998 1425.758 257.243 1361.652 293.172 1314.116 319.81399999999996 1257.547 329.802 1221.463 370.63599999999997 1185.2 411.673 1171.289 466.085 1161.278 519.926 1150.909 575.691 1140.682 634.365 1162.708 686.635 1184.997 739.529 1235.703 771.952 1281.858 806.073 1331.049 842.438 1379.252 884.433 1440 891.6279999999999" fill="#ffffff"></path>
    </g>
    <defs>
        <mask id="SvgjsMask1028">
            <rect width="1440" height="560" fill="#ffffff"></rect>
        </mask>
    </defs>
</svg>