<svg xmlns="http://www.w3.org/2000/svg" version="1.1" xmlns:xlink="http://www.w3.org/1999/xlink" xmlns:svgjs="http://svgjs.com/svgjs" width="1440" height="560" preserveAspectRatio="none" viewBox="0 0 1440 560">
    <g mask="url(&quot;#SvgjsMask1110&quot;)" fill="none">
        <path d="M -765.7602232544004,308 C -621.76,297.2 -333.76,252 -45.76022325440043,254 C 242.24,256 386.24,314 674.2397767455996,318 C 962.24,322 1241.09,272.2 1394.2397767455996,274 C 1547.39,275.8 1430.85,316.4 1440,327" stroke="rgba(253, 211, 211, 0.42)" stroke-width="2"></path>
        <path d="M -342.721988176592,304 C -198.72,293.8 89.28,251.8 377.278011823408,253 C 665.28,254.2 809.28,321 1097.278011823408,310 C 1385.28,299 1748.73,197 1817.278011823408,198 C 1885.82,199 1515.46,291.6 1440,315" stroke="rgba(253, 211, 211, 0.42)" stroke-width="2"></path>
        <path d="M -867.2289417287336,291 C -723.23,270.8 -435.23,177 -147.22894172873356,190 C 140.77,203 284.77,345.6 572.7710582712664,356 C 860.77,366.4 1119.33,243.8 1292.7710582712664,242 C 1466.22,240.2 1410.55,326 1440,347" stroke="rgba(253, 211, 211, 0.42)" stroke-width="2"></path>
        <path d="M -504.32391974079354,262 C -360.32,285.8 -72.32,377.8 215.67608025920646,381 C 503.68,384.2 647.68,289.2 935.6760802592064,278 C 1223.68,266.8 1554.81,341.6 1655.6760802592064,325 C 1756.54,308.4 1483.14,221 1440,195" stroke="rgba(253, 211, 211, 0.42)" stroke-width="2"></path>
        <path d="M -624.6088549587718,374 C -480.61,334.2 -192.61,193.2 95.39114504122821,175 C 383.39,156.8 527.39,281.6 815.3911450412282,283 C 1103.39,284.4 1410.47,164.6 1535.3911450412281,182 C 1660.31,199.4 1459.08,332.4 1440,370" stroke="rgba(253, 211, 211, 0.42)" stroke-width="2"></path>
        <path d="M -402.8190601086261,241 C -258.82,269.6 29.18,386.8 317.1809398913739,384 C 605.18,381.2 749.18,232.4 1037.1809398913738,227 C 1325.18,221.6 1676.62,367 1757.1809398913738,357 C 1837.74,347 1503.44,213 1440,177" stroke="rgba(253, 211, 211, 0.42)" stroke-width="2"></path>
    </g>
    <defs>
        <mask id="SvgjsMask1110">
            <rect width="1440" height="560" fill="#ffffff"></rect>
        </mask>
    </defs>
</svg>